<svg width="273" height="71" viewBox="0 0 273 71" fill="none" xmlns="http://www.w3.org/2000/svg">
<rect x="1.5" y="1.5" width="270" height="68" rx="16.5" fill="#6F8D91" fill-opacity="0.15"/>
<rect x="1.5" y="1.5" width="270" height="68" rx="16.5" stroke="#1B458B" stroke-width="3"/>
<path d="M18.8182 47V23.7273H26.6818C28.5076 23.7273 30 24.0568 31.1591 24.7159C32.3258 25.3674 33.1894 26.25 33.75 27.3636C34.3106 28.4773 34.5909 29.7197 34.5909 31.0909C34.5909 32.4621 34.3106 33.7083 33.75 34.8295C33.197 35.9508 32.3409 36.8447 31.1818 37.5114C30.0227 38.1705 28.5379 38.5 26.7273 38.5H21.0909V36H26.6364C27.8864 36 28.8902 35.7841 29.6477 35.3523C30.4053 34.9205 30.9545 34.3371 31.2955 33.6023C31.6439 32.8598 31.8182 32.0227 31.8182 31.0909C31.8182 30.1591 31.6439 29.3258 31.2955 28.5909C30.9545 27.8561 30.4015 27.2803 29.6364 26.8636C28.8712 26.4394 27.8561 26.2273 26.5909 26.2273H21.6364V47H18.8182ZM43.9034 47.4091C42.7973 47.4091 41.7936 47.2008 40.892 46.7841C39.9905 46.3598 39.2746 45.75 38.7443 44.9545C38.214 44.1515 37.9489 43.1818 37.9489 42.0455C37.9489 41.0455 38.1458 40.2348 38.5398 39.6136C38.9337 38.9848 39.4602 38.4924 40.1193 38.1364C40.7784 37.7803 41.5057 37.5152 42.3011 37.3409C43.1042 37.1591 43.911 37.0152 44.7216 36.9091C45.7822 36.7727 46.642 36.6705 47.3011 36.6023C47.9678 36.5265 48.4527 36.4015 48.7557 36.2273C49.0663 36.053 49.2216 35.75 49.2216 35.3182V35.2273C49.2216 34.1061 48.9148 33.2348 48.3011 32.6136C47.6951 31.9924 46.7746 31.6818 45.5398 31.6818C44.2595 31.6818 43.2557 31.9621 42.5284 32.5227C41.8011 33.0833 41.2898 33.6818 40.9943 34.3182L38.4489 33.4091C38.9034 32.3485 39.5095 31.5227 40.267 30.9318C41.0322 30.3333 41.8655 29.9167 42.767 29.6818C43.6761 29.4394 44.5701 29.3182 45.4489 29.3182C46.0095 29.3182 46.6534 29.3864 47.3807 29.5227C48.1155 29.6515 48.8239 29.9205 49.5057 30.3295C50.1951 30.7386 50.767 31.3561 51.2216 32.1818C51.6761 33.0076 51.9034 34.1136 51.9034 35.5V47H49.2216V44.6364H49.0852C48.9034 45.0152 48.6004 45.4205 48.1761 45.8523C47.7519 46.2841 47.1875 46.6515 46.483 46.9545C45.7784 47.2576 44.9186 47.4091 43.9034 47.4091ZM44.3125 45C45.3731 45 46.267 44.7917 46.9943 44.375C47.7292 43.9583 48.2822 43.4205 48.6534 42.7614C49.0322 42.1023 49.2216 41.4091 49.2216 40.6818V38.2273C49.108 38.3636 48.858 38.4886 48.4716 38.6023C48.0928 38.7083 47.6534 38.803 47.1534 38.8864C46.661 38.9621 46.1799 39.0303 45.7102 39.0909C45.2481 39.1439 44.8731 39.1894 44.5852 39.2273C43.8883 39.3182 43.2367 39.4659 42.6307 39.6705C42.0322 39.8674 41.5473 40.1667 41.1761 40.5682C40.8125 40.9621 40.6307 41.5 40.6307 42.1818C40.6307 43.1136 40.9754 43.8182 41.6648 44.2955C42.3617 44.7652 43.2443 45 44.3125 45ZM69.1619 33.4545L66.7528 34.1364C66.6013 33.7348 66.3778 33.3447 66.0824 32.9659C65.7945 32.5795 65.4006 32.2614 64.9006 32.0114C64.4006 31.7614 63.7604 31.6364 62.9801 31.6364C61.9119 31.6364 61.0218 31.8826 60.3097 32.375C59.6051 32.8598 59.2528 33.4773 59.2528 34.2273C59.2528 34.8939 59.4953 35.4205 59.9801 35.8068C60.465 36.1932 61.2225 36.5152 62.2528 36.7727L64.8438 37.4091C66.4044 37.7879 67.5672 38.3674 68.3324 39.1477C69.0975 39.9205 69.4801 40.9167 69.4801 42.1364C69.4801 43.1364 69.1922 44.0303 68.6165 44.8182C68.0483 45.6061 67.2528 46.2273 66.2301 46.6818C65.2074 47.1364 64.018 47.3636 62.6619 47.3636C60.8816 47.3636 59.4081 46.9773 58.2415 46.2045C57.0748 45.4318 56.3362 44.303 56.0256 42.8182L58.571 42.1818C58.8134 43.1212 59.2718 43.8258 59.946 44.2955C60.6278 44.7652 61.518 45 62.6165 45C63.8665 45 64.8589 44.7348 65.5938 44.2045C66.3362 43.6667 66.7074 43.0227 66.7074 42.2727C66.7074 41.6667 66.4953 41.1591 66.071 40.75C65.6468 40.3333 64.9953 40.0227 64.1165 39.8182L61.2074 39.1364C59.6089 38.7576 58.4347 38.1705 57.6847 37.375C56.9422 36.572 56.571 35.5682 56.571 34.3636C56.571 33.3788 56.8475 32.5076 57.4006 31.75C57.9612 30.9924 58.7225 30.3977 59.6847 29.9659C60.6544 29.5341 61.7528 29.3182 62.9801 29.3182C64.7074 29.3182 66.0634 29.697 67.0483 30.4545C68.0407 31.2121 68.7453 32.2121 69.1619 33.4545ZM85.8807 33.4545L83.4716 34.1364C83.3201 33.7348 83.0966 33.3447 82.8011 32.9659C82.5133 32.5795 82.1193 32.2614 81.6193 32.0114C81.1193 31.7614 80.4792 31.6364 79.6989 31.6364C78.6307 31.6364 77.7405 31.8826 77.0284 32.375C76.3239 32.8598 75.9716 33.4773 75.9716 34.2273C75.9716 34.8939 76.214 35.4205 76.6989 35.8068C77.1837 36.1932 77.9413 36.5152 78.9716 36.7727L81.5625 37.4091C83.1231 37.7879 84.286 38.3674 85.0511 39.1477C85.8163 39.9205 86.1989 40.9167 86.1989 42.1364C86.1989 43.1364 85.911 44.0303 85.3352 44.8182C84.767 45.6061 83.9716 46.2273 82.9489 46.6818C81.9261 47.1364 80.7367 47.3636 79.3807 47.3636C77.6004 47.3636 76.1269 46.9773 74.9602 46.2045C73.7936 45.4318 73.0549 44.303 72.7443 42.8182L75.2898 42.1818C75.5322 43.1212 75.9905 43.8258 76.6648 44.2955C77.3466 44.7652 78.2367 45 79.3352 45C80.5852 45 81.5777 44.7348 82.3125 44.2045C83.0549 43.6667 83.4261 43.0227 83.4261 42.2727C83.4261 41.6667 83.214 41.1591 82.7898 40.75C82.3655 40.3333 81.714 40.0227 80.8352 39.8182L77.9261 39.1364C76.3277 38.7576 75.1534 38.1705 74.4034 37.375C73.661 36.572 73.2898 35.5682 73.2898 34.3636C73.2898 33.3788 73.5663 32.5076 74.1193 31.75C74.6799 30.9924 75.4413 30.3977 76.4034 29.9659C77.3731 29.5341 78.4716 29.3182 79.6989 29.3182C81.4261 29.3182 82.7822 29.697 83.767 30.4545C84.7595 31.2121 85.464 32.2121 85.8807 33.4545ZM97.554 47.3636C95.8722 47.3636 94.4214 46.9924 93.2017 46.25C91.9896 45.5 91.054 44.4545 90.3949 43.1136C89.7434 41.7652 89.4176 40.197 89.4176 38.4091C89.4176 36.6212 89.7434 35.0455 90.3949 33.6818C91.054 32.3106 91.9706 31.2424 93.1449 30.4773C94.3267 29.7045 95.7055 29.3182 97.2812 29.3182C98.1903 29.3182 99.0881 29.4697 99.9744 29.7727C100.861 30.0758 101.668 30.5682 102.395 31.25C103.122 31.9242 103.702 32.8182 104.134 33.9318C104.565 35.0455 104.781 36.4167 104.781 38.0455V39.1818H91.3267V36.8636H102.054C102.054 35.8788 101.857 35 101.463 34.2273C101.077 33.4545 100.524 32.8447 99.804 32.3977C99.0919 31.9508 98.2509 31.7273 97.2812 31.7273C96.2131 31.7273 95.2888 31.9924 94.5085 32.5227C93.7358 33.0455 93.1411 33.7273 92.7244 34.5682C92.3078 35.4091 92.0994 36.3106 92.0994 37.2727V38.8182C92.0994 40.1364 92.3267 41.2538 92.7812 42.1705C93.2434 43.0795 93.8835 43.7727 94.7017 44.25C95.5199 44.7197 96.4706 44.9545 97.554 44.9545C98.2585 44.9545 98.8949 44.8561 99.4631 44.6591C100.039 44.4545 100.535 44.1515 100.952 43.75C101.368 43.3409 101.69 42.8333 101.918 42.2273L104.509 42.9545C104.236 43.8333 103.777 44.6061 103.134 45.2727C102.49 45.9318 101.694 46.447 100.747 46.8182C99.8002 47.1818 98.7358 47.3636 97.554 47.3636ZM108.861 47V29.5455H111.452V32.1818H111.634C111.952 31.3182 112.527 30.6174 113.361 30.0795C114.194 29.5417 115.134 29.2727 116.179 29.2727C116.376 29.2727 116.622 29.2765 116.918 29.2841C117.213 29.2917 117.437 29.303 117.588 29.3182V32.0455C117.497 32.0227 117.289 31.9886 116.963 31.9432C116.645 31.8902 116.308 31.8636 115.952 31.8636C115.103 31.8636 114.346 32.0417 113.679 32.3977C113.02 32.7462 112.497 33.2311 112.111 33.8523C111.732 34.4659 111.543 35.1667 111.543 35.9545V47H108.861ZM132.449 23.7273V47H129.767V23.7273H132.449ZM144.679 47.3636C142.997 47.3636 141.546 46.9924 140.327 46.25C139.115 45.5 138.179 44.4545 137.52 43.1136C136.868 41.7652 136.543 40.197 136.543 38.4091C136.543 36.6212 136.868 35.0455 137.52 33.6818C138.179 32.3106 139.096 31.2424 140.27 30.4773C141.452 29.7045 142.83 29.3182 144.406 29.3182C145.315 29.3182 146.213 29.4697 147.099 29.7727C147.986 30.0758 148.793 30.5682 149.52 31.25C150.247 31.9242 150.827 32.8182 151.259 33.9318C151.69 35.0455 151.906 36.4167 151.906 38.0455V39.1818H138.452V36.8636H149.179C149.179 35.8788 148.982 35 148.588 34.2273C148.202 33.4545 147.649 32.8447 146.929 32.3977C146.217 31.9508 145.376 31.7273 144.406 31.7273C143.338 31.7273 142.414 31.9924 141.634 32.5227C140.861 33.0455 140.266 33.7273 139.849 34.5682C139.433 35.4091 139.224 36.3106 139.224 37.2727V38.8182C139.224 40.1364 139.452 41.2538 139.906 42.1705C140.368 43.0795 141.009 43.7727 141.827 44.25C142.645 44.7197 143.596 44.9545 144.679 44.9545C145.384 44.9545 146.02 44.8561 146.588 44.6591C147.164 44.4545 147.66 44.1515 148.077 43.75C148.493 43.3409 148.815 42.8333 149.043 42.2273L151.634 42.9545C151.361 43.8333 150.902 44.6061 150.259 45.2727C149.615 45.9318 148.819 46.447 147.872 46.8182C146.925 47.1818 145.861 47.3636 144.679 47.3636ZM172.577 29.5455V31.8182H163.531V29.5455H172.577ZM166.168 25.3636H168.849V42C168.849 42.7576 168.959 43.3258 169.179 43.7045C169.406 44.0758 169.694 44.3258 170.043 44.4545C170.399 44.5758 170.774 44.6364 171.168 44.6364C171.463 44.6364 171.705 44.6212 171.895 44.5909C172.084 44.553 172.236 44.5227 172.349 44.5L172.895 46.9091C172.713 46.9773 172.459 47.0455 172.134 47.1136C171.808 47.1894 171.395 47.2273 170.895 47.2273C170.137 47.2273 169.395 47.0644 168.668 46.7386C167.948 46.4129 167.349 45.9167 166.872 45.25C166.402 44.5833 166.168 43.7424 166.168 42.7273V25.3636ZM183.741 47.3636C182.06 47.3636 180.609 46.9924 179.389 46.25C178.177 45.5 177.241 44.4545 176.582 43.1136C175.931 41.7652 175.605 40.197 175.605 38.4091C175.605 36.6212 175.931 35.0455 176.582 33.6818C177.241 32.3106 178.158 31.2424 179.332 30.4773C180.514 29.7045 181.893 29.3182 183.469 29.3182C184.378 29.3182 185.276 29.4697 186.162 29.7727C187.048 30.0758 187.855 30.5682 188.582 31.25C189.31 31.9242 189.889 32.8182 190.321 33.9318C190.753 35.0455 190.969 36.4167 190.969 38.0455V39.1818H177.514V36.8636H188.241C188.241 35.8788 188.045 35 187.651 34.2273C187.264 33.4545 186.711 32.8447 185.991 32.3977C185.279 31.9508 184.438 31.7273 183.469 31.7273C182.401 31.7273 181.476 31.9924 180.696 32.5227C179.923 33.0455 179.329 33.7273 178.912 34.5682C178.495 35.4091 178.287 36.3106 178.287 37.2727V38.8182C178.287 40.1364 178.514 41.2538 178.969 42.1705C179.431 43.0795 180.071 43.7727 180.889 44.25C181.707 44.7197 182.658 44.9545 183.741 44.9545C184.446 44.9545 185.082 44.8561 185.651 44.6591C186.226 44.4545 186.723 44.1515 187.139 43.75C187.556 43.3409 187.878 42.8333 188.105 42.2273L190.696 42.9545C190.423 43.8333 189.965 44.6061 189.321 45.2727C188.677 45.9318 187.882 46.447 186.935 46.8182C185.988 47.1818 184.923 47.3636 183.741 47.3636ZM195.048 47V29.5455H197.639V32.2727H197.866C198.23 31.3409 198.817 30.6174 199.628 30.1023C200.438 29.5795 201.412 29.3182 202.548 29.3182C203.7 29.3182 204.658 29.5795 205.423 30.1023C206.196 30.6174 206.798 31.3409 207.23 32.2727H207.412C207.859 31.3712 208.529 30.6553 209.423 30.125C210.317 29.5871 211.389 29.3182 212.639 29.3182C214.2 29.3182 215.476 29.8068 216.469 30.7841C217.461 31.7538 217.957 33.2652 217.957 35.3182V47H215.276V35.3182C215.276 34.0303 214.923 33.1098 214.219 32.5568C213.514 32.0038 212.685 31.7273 211.73 31.7273C210.503 31.7273 209.552 32.0985 208.878 32.8409C208.204 33.5758 207.866 34.5076 207.866 35.6364V47H205.139V35.0455C205.139 34.053 204.817 33.2538 204.173 32.6477C203.529 32.0341 202.7 31.7273 201.685 31.7273C200.988 31.7273 200.336 31.9129 199.73 32.2841C199.132 32.6553 198.647 33.1705 198.276 33.8295C197.912 34.4811 197.73 35.2348 197.73 36.0909V47H195.048ZM222.861 53.5455V29.5455H225.452V32.3182H225.77C225.967 32.0152 226.24 31.6288 226.588 31.1591C226.944 30.6818 227.452 30.2576 228.111 29.8864C228.777 29.5076 229.679 29.3182 230.815 29.3182C232.285 29.3182 233.58 29.6856 234.702 30.4205C235.823 31.1553 236.698 32.197 237.327 33.5455C237.955 34.8939 238.27 36.4848 238.27 38.3182C238.27 40.1667 237.955 41.7689 237.327 43.125C236.698 44.4735 235.827 45.5189 234.713 46.2614C233.599 46.9962 232.315 47.3636 230.861 47.3636C229.74 47.3636 228.842 47.178 228.168 46.8068C227.493 46.428 226.974 46 226.611 45.5227C226.247 45.0379 225.967 44.6364 225.77 44.3182H225.543V53.5455H222.861ZM225.497 38.2727C225.497 39.5909 225.69 40.7538 226.077 41.7614C226.463 42.7614 227.027 43.5455 227.77 44.1136C228.512 44.6742 229.421 44.9545 230.497 44.9545C231.618 44.9545 232.554 44.6591 233.304 44.0682C234.062 43.4697 234.63 42.6667 235.009 41.6591C235.395 40.6439 235.588 39.5152 235.588 38.2727C235.588 37.0455 235.399 35.9394 235.02 34.9545C234.649 33.9621 234.084 33.178 233.327 32.6023C232.577 32.0189 231.634 31.7273 230.497 31.7273C229.406 31.7273 228.49 32.0038 227.747 32.5568C227.005 33.1023 226.444 33.8674 226.065 34.8523C225.687 35.8295 225.497 36.9697 225.497 38.2727ZM254.724 33.4545L252.315 34.1364C252.164 33.7348 251.94 33.3447 251.645 32.9659C251.357 32.5795 250.963 32.2614 250.463 32.0114C249.963 31.7614 249.323 31.6364 248.543 31.6364C247.474 31.6364 246.584 31.8826 245.872 32.375C245.168 32.8598 244.815 33.4773 244.815 34.2273C244.815 34.8939 245.058 35.4205 245.543 35.8068C246.027 36.1932 246.785 36.5152 247.815 36.7727L250.406 37.4091C251.967 37.7879 253.13 38.3674 253.895 39.1477C254.66 39.9205 255.043 40.9167 255.043 42.1364C255.043 43.1364 254.755 44.0303 254.179 44.8182C253.611 45.6061 252.815 46.2273 251.793 46.6818C250.77 47.1364 249.58 47.3636 248.224 47.3636C246.444 47.3636 244.971 46.9773 243.804 46.2045C242.637 45.4318 241.899 44.303 241.588 42.8182L244.134 42.1818C244.376 43.1212 244.834 43.8258 245.509 44.2955C246.19 44.7652 247.08 45 248.179 45C249.429 45 250.421 44.7348 251.156 44.2045C251.899 43.6667 252.27 43.0227 252.27 42.2727C252.27 41.6667 252.058 41.1591 251.634 40.75C251.209 40.3333 250.558 40.0227 249.679 39.8182L246.77 39.1364C245.171 38.7576 243.997 38.1705 243.247 37.375C242.505 36.572 242.134 35.5682 242.134 34.3636C242.134 33.3788 242.41 32.5076 242.963 31.75C243.524 30.9924 244.285 30.3977 245.247 29.9659C246.217 29.5341 247.315 29.3182 248.543 29.3182C250.27 29.3182 251.626 29.697 252.611 30.4545C253.603 31.2121 254.308 32.2121 254.724 33.4545Z" fill="white"/>
</svg>
