<svg width="136" height="136" viewBox="0 0 136 136" fill="none" xmlns="http://www.w3.org/2000/svg">
<g filter="url(#filter0_d_49_3875)">
<path d="M89.9964 68.1192C89.9363 69.1122 89.0374 69.9227 88.0424 69.9227H77.6855C77.298 69.9227 76.9601 70.1808 76.8529 70.5533C76.6607 71.2205 76.3953 71.8569 76.0656 72.4524C75.8777 72.7922 75.9329 73.2143 76.2074 73.4887L83.5563 80.8377C84.3076 81.5885 84.3076 82.8055 83.5563 83.5563C83.1809 83.9322 82.6892 84.1197 82.197 84.1197C81.7048 84.1197 81.2131 83.9322 80.8377 83.5563L73.4887 76.2074C73.2143 75.9329 72.7922 75.8777 72.4524 76.0656C71.8569 76.3953 71.2205 76.6607 70.5533 76.8529C70.1808 76.9601 69.9227 77.298 69.9227 77.6855V88.0424C69.9227 89.0374 69.1127 89.9363 68.1192 89.9964C67.0031 90.0636 66.0773 89.1787 66.0773 88.0775V77.6855C66.0773 77.298 65.8192 76.9601 65.4467 76.8529C64.7795 76.6607 64.1431 76.3953 63.5475 76.0656C63.2077 75.8777 62.7857 75.9329 62.5112 76.2074L55.1623 83.5563C54.7869 83.9322 54.2951 84.1197 53.8029 84.1197C53.3107 84.1197 52.819 83.9322 52.4436 83.5563C51.6923 82.8055 51.6923 81.5885 52.4436 80.8377L59.7926 73.4887C60.067 73.2143 60.1223 72.7922 59.9343 72.4524C59.6046 71.8569 59.3393 71.2205 59.147 70.5533C59.0398 70.1808 58.7019 69.9227 58.3145 69.9227H47.9575C46.9625 69.9227 46.0637 69.1127 46.0036 68.1192C45.9363 67.0031 46.8212 66.0773 47.9224 66.0773H58.3145C58.7019 66.0773 59.0398 65.8192 59.147 65.4467C59.3393 64.7795 59.6046 64.1431 59.9343 63.5475C60.1223 63.2077 60.067 62.7857 59.7926 62.5112L52.4436 55.1623C51.6923 54.4115 51.6923 53.1944 52.4436 52.4436C53.1944 51.6923 54.4115 51.6923 55.1623 52.4436L62.5112 59.7926C62.7857 60.067 63.2077 60.1223 63.5475 59.9343C64.1431 59.6046 64.7795 59.3393 65.4467 59.147C65.8192 59.0398 66.0773 58.7019 66.0773 58.3145V47.9575C66.0773 46.9625 66.8872 46.0637 67.8808 46.0036C68.9969 45.9363 69.9227 46.8212 69.9227 47.9224V58.3145C69.9227 58.7019 70.1808 59.0398 70.5533 59.147C71.2205 59.3393 71.8569 59.6046 72.4524 59.9343C72.7922 60.1223 73.2143 60.067 73.4887 59.7926L80.8377 52.4436C81.5885 51.6923 82.8055 51.6923 83.5563 52.4436C84.3076 53.1944 84.3076 54.4115 83.5563 55.1623L76.2074 62.5112C75.9329 62.7857 75.8777 63.2077 76.0656 63.5475C76.3953 64.1431 76.6607 64.7795 76.8529 65.4467C76.9601 65.8192 77.298 66.0773 77.6855 66.0773H88.0775C89.1787 66.0773 90.0641 67.0035 89.9964 68.1192Z" fill="#BEF9FF"/>
</g>
<defs>
<filter id="filter0_d_49_3875" x="0" y="0" width="136" height="136" filterUnits="userSpaceOnUse" color-interpolation-filters="sRGB">
<feFlood flood-opacity="0" result="BackgroundImageFix"/>
<feColorMatrix in="SourceAlpha" type="matrix" values="0 0 0 0 0 0 0 0 0 0 0 0 0 0 0 0 0 0 127 0" result="hardAlpha"/>
<feOffset/>
<feGaussianBlur stdDeviation="23"/>
<feColorMatrix type="matrix" values="0 0 0 0 0.745098 0 0 0 0 0.976471 0 0 0 0 1 0 0 0 0.6 0"/>
<feBlend mode="normal" in2="BackgroundImageFix" result="effect1_dropShadow_49_3875"/>
<feBlend mode="normal" in="SourceGraphic" in2="effect1_dropShadow_49_3875" result="shape"/>
</filter>
</defs>
</svg>
