<svg width="121" height="132" viewBox="0 0 121 132" fill="none" xmlns="http://www.w3.org/2000/svg">
<g filter="url(#filter0_d_49_3753)">
<path d="M72.6869 81.4039H72.5264C71.9627 81.4039 71.5056 80.9408 71.5056 80.3698V76.3171C71.5056 74.7573 70.9056 73.2912 69.8173 72.1892L64.4298 66.7314C64.0311 66.3275 64.0311 65.6725 64.4298 65.2686L69.8173 59.8108C70.8982 58.7157 71.5056 57.2306 71.5056 55.6817V51.6302C71.5056 51.0592 71.9627 50.5961 72.5264 50.5961H72.6869C73.9589 50.5961 75.024 49.5419 74.9996 48.2532C74.9763 47.0048 73.9697 46 72.7317 46H48.3137C47.0416 46 45.9766 47.0542 46.001 48.3429C46.0242 49.5913 47.0308 50.5961 48.2689 50.5961H48.4741C49.0379 50.5961 49.4949 51.0592 49.4949 51.6302V55.6829C49.4949 57.2427 50.0949 58.7088 51.1832 59.8108L56.5708 65.2686C56.9695 65.6725 56.9695 66.3275 56.5708 66.7314L51.1821 72.1904C50.1018 73.2848 49.4944 74.7694 49.4944 76.3171V80.3698C49.4944 80.9408 49.0373 81.4039 48.4736 81.4039H48.3131C47.0411 81.4039 45.976 82.4581 46.0004 83.7468C46.0237 84.9952 47.0303 86 48.2683 86H72.7311C73.9691 86 74.9758 84.9952 74.999 83.7468C75.0234 82.4587 73.9578 81.4039 72.6863 81.4039H72.6869ZM54.3908 56.5602C54.1628 56.3298 54.0318 56.0098 54.0318 55.6829V51.6302C54.0318 51.0592 54.4889 50.5961 55.0526 50.5961H65.9479C66.5117 50.5961 66.9687 51.0592 66.9687 51.6302V55.6811C66.9687 56.0109 66.8394 56.3275 66.6092 56.5607L61.2222 62.018C60.8235 62.4219 60.177 62.4219 59.7784 62.018L54.3908 56.5602ZM65.9479 81.4039H55.0526C54.4889 81.4039 54.0318 80.9408 54.0318 80.3698V76.3171C54.0318 75.9856 54.16 75.6737 54.3914 75.4387L59.7784 69.982C60.177 69.5781 60.8235 69.5781 61.2216 69.982L66.6092 75.4393C66.8372 75.6702 66.9682 75.9902 66.9682 76.3171V80.3698C66.9682 80.9408 66.5111 81.4039 65.9474 81.4039H65.9479Z" fill="#AFFCFF"/>
</g>
<defs>
<filter id="filter0_d_49_3753" x="0" y="0" width="121" height="132" filterUnits="userSpaceOnUse" color-interpolation-filters="sRGB">
<feFlood flood-opacity="0" result="BackgroundImageFix"/>
<feColorMatrix in="SourceAlpha" type="matrix" values="0 0 0 0 0 0 0 0 0 0 0 0 0 0 0 0 0 0 127 0" result="hardAlpha"/>
<feOffset/>
<feGaussianBlur stdDeviation="23"/>
<feColorMatrix type="matrix" values="0 0 0 0 0.745098 0 0 0 0 0.976471 0 0 0 0 1 0 0 0 0.6 0"/>
<feBlend mode="normal" in2="BackgroundImageFix" result="effect1_dropShadow_49_3753"/>
<feBlend mode="normal" in="SourceGraphic" in2="effect1_dropShadow_49_3753" result="shape"/>
</filter>
</defs>
</svg>
