<?xml version="1.0" encoding="UTF-8"?>
<svg id="Calque_10" data-name="Calque 10" xmlns="http://www.w3.org/2000/svg" xmlns:xlink="http://www.w3.org/1999/xlink" viewBox="0 0 1073.87 1326.09">
  <defs>
    <style>
      .cls-1 {
        fill: #bef9ff;
        filter: url(#outer-glow-1);
        stroke-width: 0px;
      }
    </style>
    <filter id="outer-glow-1" filterUnits="userSpaceOnUse">
      <feOffset dx="0" dy="0"/>
      <feGaussianBlur result="blur" stdDeviation="23"/>
      <feFlood flood-color="#bef9ff" flood-opacity=".6"/>
      <feComposite in2="blur" operator="in"/>
      <feComposite in="SourceGraphic"/>
    </filter>
  </defs>
  <path class="cls-1" d="M877.82,1061.15c-25.05,20.81-36.1,28.03-49.68,34.82-20.38,9.77-37.79,13.59-59.88,18.26-36.52,7.64-39.07,3.82-68.37,11.47-25.48,6.79-26.33,10.62-50.11,16.14-21.66,4.67-22.93,2.12-53.51,6.37-41.19,5.95-44.59,12.32-66.67,10.62-19.96-1.27-16.99-6.37-44.59-10.62-24.21-3.82-30.58,0-67.1-2.97-18.26-1.27-31.85-3.4-39.49-4.25-5.52-.85-39.49-5.95-71.34-15.29-4.25-1.27-8.07-2.55-11.89-3.82-11.89-4.67-22.08-11.04-91.3-41.19-58.6-25.48-87.05-36.52-90.03-58.18-1.27-10.62,3.4-23.78,5.1-29.73,1.27-3.82,6.79-17.84,19.96-33.12,8.92-10.19,21.23-16.56,29.3-25.48,10.62-11.47,15.71-25.05,21.66-31.85,6.79-8.07,7.64-10.19,23.36-29.73,35.25-44.59,36.95-49.68,51.81-63.27,13.59-12.32,15.29-11.04,22.08-19.53,12.32-15.71,10.62-25.9,22.93-48.41,5.95-11.04,11.47-18.26,22.08-31.42,20.38-25.48,24.21-22.93,35.67-39.49,18.26-25.9,9.77-33.97,27.6-54.78,8.49-9.77,10.62-8.49,33.12-29.3,10.62-10.19,18.26-16.99,26.75-27.18,8.49-9.77,28.45-32.7,42.47-65.82,6.79-16.56,6.79-20.81,14.01-31,1.27-2.12,17.41-24.21,38.64-22.93,15.29.85,25.05,13.16,36.1,26.33,9.77,11.47,9.34,16.56,23.78,39.07,9.77,15.71,17.84,27.6,22.51,33.97,17.41,20.81,24.63,19.53,37.37,38.64,2.97,4.25,7.22,12.74,15.29,29.3,12.74,25.9,14.01,31.42,21.23,41.19,9.77,13.59,14.01,12.32,25.05,25.05,22.51,25.05,15.71,40.77,36.1,70.49,5.52,8.07,4.25,3.82,34.4,34.82,29.3,30.15,44.16,45.01,51.81,56.48,12.74,18.26,21.66,36.95,36.95,50.11,13.16,11.47,19.11,14.86,19.11,14.86,7.22,4.67,11.47,6.79,16.56,10.62,0,0,3.82,2.97,7.22,6.79,6.79,6.79,25.9,31.85,26.33,53.93.85,20.38-27.18,44.16-83.66,90.88l1.27-.85Z"/>
</svg>