<svg width="136" height="130" viewBox="0 0 136 130" fill="none" xmlns="http://www.w3.org/2000/svg">
<g filter="url(#filter0_d_49_2359)">
<path d="M85.7169 78.3137C84.415 79.3953 83.8407 79.7705 83.1349 80.1234C82.0757 80.6312 81.1708 80.8297 80.0227 81.0724C78.1246 81.4695 77.9921 81.271 76.4693 81.6686C75.145 82.0215 75.1008 82.2205 73.8649 82.5074C72.7391 82.7501 72.6731 82.6176 71.0838 82.8385C68.943 83.1477 68.7663 83.4788 67.6187 83.3905C66.5813 83.3244 66.7357 83.0594 65.3012 82.8385C64.0429 82.64 63.7119 82.8385 61.8138 82.6841C60.8647 82.6181 60.1584 82.5074 59.7613 82.4632C59.4745 82.4191 57.7089 82.154 56.0536 81.6686C55.8327 81.6026 55.6341 81.536 55.4356 81.47C54.8176 81.2273 54.288 80.8962 50.6904 79.3292C47.6448 78.005 46.1661 77.4312 46.0112 76.3054C45.9452 75.7535 46.1879 75.0695 46.2763 74.7603C46.3423 74.5617 46.6292 73.833 47.3137 73.0389C47.7773 72.5093 48.4171 72.1782 48.8365 71.7146C49.3885 71.1185 49.653 70.4127 49.9623 70.0592C50.3152 69.6398 50.3593 69.5296 51.1764 68.5141C53.0084 66.1966 53.0968 65.932 53.8691 65.2257C54.5754 64.5854 54.6638 64.6519 55.0167 64.2107C55.657 63.3942 55.5686 62.8646 56.2084 61.6946C56.5177 61.1208 56.8046 60.7456 57.356 60.0616C58.4152 58.7373 58.6143 58.8699 59.2099 58.0092C60.1589 56.6631 59.7177 56.2436 60.6444 55.1621C61.0856 54.6543 61.1963 54.7208 62.3657 53.6393C62.9177 53.1096 63.3148 52.7562 63.756 52.2266C64.1973 51.7188 65.2347 50.5271 65.9633 48.8057C66.3162 47.945 66.3162 47.7241 66.6915 47.1945C66.7575 47.0843 67.5964 45.9363 68.6998 46.0028C69.4944 46.047 70.0017 46.6868 70.576 47.3712C71.0838 47.9674 71.0614 48.2319 71.8119 49.4018C72.3197 50.2184 72.7391 50.8363 72.9818 51.1674C73.8867 52.249 74.262 52.1824 74.9241 53.1756C75.0785 53.3965 75.2993 53.8378 75.7188 54.6985C76.3809 56.0446 76.4469 56.3315 76.8222 56.8393C77.33 57.5456 77.5503 57.4796 78.1241 58.1412C79.294 59.4431 78.9406 60.2602 80.0004 61.8048C80.2872 62.2242 80.2212 62.0034 81.7882 63.6145C83.3111 65.1815 84.0834 65.9539 84.481 66.55C85.1431 67.499 85.6067 68.4704 86.4014 69.1544C87.0854 69.7505 87.3946 69.9267 87.3946 69.9267C87.7699 70.1694 87.9908 70.2796 88.2553 70.4787C88.2553 70.4787 88.4538 70.633 88.6306 70.8316C88.9835 71.1845 89.9767 72.4869 89.999 73.6345C90.0432 74.6937 88.5864 75.9297 85.6509 78.3579L85.7169 78.3137Z" fill="#BEF9FF"/>
</g>
<defs>
<filter id="filter0_d_49_2359" x="0" y="0" width="136" height="129.405" filterUnits="userSpaceOnUse" color-interpolation-filters="sRGB">
<feFlood flood-opacity="0" result="BackgroundImageFix"/>
<feColorMatrix in="SourceAlpha" type="matrix" values="0 0 0 0 0 0 0 0 0 0 0 0 0 0 0 0 0 0 127 0" result="hardAlpha"/>
<feOffset/>
<feGaussianBlur stdDeviation="23"/>
<feColorMatrix type="matrix" values="0 0 0 0 0.745098 0 0 0 0 0.976471 0 0 0 0 1 0 0 0 0.6 0"/>
<feBlend mode="normal" in2="BackgroundImageFix" result="effect1_dropShadow_49_2359"/>
<feBlend mode="normal" in="SourceGraphic" in2="effect1_dropShadow_49_2359" result="shape"/>
</filter>
</defs>
</svg>
