<?xml version="1.0" encoding="UTF-8"?>
<svg id="Calque_10" data-name="Calque 10" xmlns="http://www.w3.org/2000/svg" xmlns:xlink="http://www.w3.org/1999/xlink" viewBox="0 0 1073.87 1326.09">
  <defs>
    <style>
      .cls-1 {
        filter: url(#outer-glow-1);
      }

      .cls-2 {
        fill: #bef9ff;
        stroke-width: 0px;
      }
    </style>
    <filter id="outer-glow-1" filterUnits="userSpaceOnUse">
      <feOffset dx="0" dy="0"/>
      <feGaussianBlur result="blur" stdDeviation="23"/>
      <feFlood flood-color="#bef9ff" flood-opacity=".6"/>
      <feComposite in2="blur" operator="in"/>
      <feComposite in="SourceGraphic"/>
    </filter>
  </defs>
  <g class="cls-1">
    <path class="cls-2" d="M859.79,1048.15c-23.8,19.79-34.32,26.78-47.13,32.91-19.21,9.2-35.75,12.75-56.72,17.24-32.94,7.06-36.5,3.8-64.75,10.94-21.32,5.39-19.09,7.19-47.5,15.29-16.44,4.68-37.41,10.57-64.37,13.83-7.1.86-24.13,2.69-49.73,2.3-36.88-.56-40.73-3.07-106.09-12.96-35.1-5.31-71.16-8.51-105.22-18.73-21.62-6.49-13.53-5.94-97.96-42.68-55.64-24.21-82.54-34.61-85.25-55.29-1.31-10.03,3.06-22.48,5.03-28.07,1.24-3.52,6.51-17.03,18.95-31.56,8.45-9.87,20.06-15.62,27.84-24.21,9.95-10.97,15.1-23.67,20.64-30.3,6.53-7.81,7.23-9.55,22.05-28.26,33.52-42.32,35-47.2,49.12-60.15,12.91-11.84,14.43-10.29,20.92-18.5,11.84-14.99,10.24-24.54,21.72-45.85,5.73-10.65,11.01-17.32,20.84-29.75,19.21-24.29,22.97-21.85,33.96-37.6,17.14-24.56,9.12-32.06,26.12-51.91,8.06-9.41,10.06-7.96,31.38-27.94,10.14-9.5,17.37-16.28,25.51-25.61,8.22-9.42,26.93-30.87,40.12-62.45,6.5-15.56,6.51-19.79,13.16-29.27,1.37-1.96,16.49-22.89,36.61-21.73,14.33.82,23.94,12.43,34.43,25.09,9.13,11.02,8.99,15.61,22.42,36.94,9.28,14.74,16.86,26.39,21.55,32.06,16.36,19.78,23.22,18.57,35.55,36.49,2.71,3.94,6.69,11.92,14.65,27.88,12.27,24.59,13.43,29.69,20.33,39.17,9.43,12.94,13.34,11.76,23.95,23.58,21.25,23.65,14.84,38.67,34.35,66.79,5.29,7.63,3.86,3.78,32.45,33.08,27.93,28.61,41.89,42.92,49.17,53.4,12.15,17.5,20.52,34.9,35.22,47.73,12.47,10.88,18.09,14.18,18.09,14.18,6.68,4.48,10.95,6.42,15.76,10.14,0,0,3.52,2.86,6.89,6.29,6.28,6.4,24.42,30.42,25.13,51.36.66,19.31-25.96,41.85-79.23,86.14Z"/>
  </g>
</svg>