<svg width="1080" height="1080" viewBox="0 0 1080 1080" fill="none" xmlns="http://www.w3.org/2000/svg">
<g clip-path="url(#clip0_109_689)">
<g filter="url(#filter0_d_109_689)">
<path d="M560.899 38.9916L709.716 340.382C713.11 347.256 719.676 352.02 727.266 353.134L1060.01 401.462C1079.13 404.246 1086.77 427.73 1072.94 441.207L832.163 675.807C826.672 681.167 824.159 688.87 825.454 696.431L882.3 1027.7C885.564 1046.73 865.579 1061.26 848.47 1052.27L550.849 895.868C544.062 892.295 535.941 892.295 529.154 895.868L231.533 1052.27C214.424 1061.26 194.439 1046.74 197.703 1027.7L254.549 696.431C255.844 688.87 253.344 681.154 247.84 675.807L7.06429 441.207C-6.76831 427.73 0.86034 404.233 19.9903 401.462L352.737 353.134C360.327 352.033 366.893 347.269 370.287 340.382L519.104 38.9916C527.652 21.6695 552.364 21.6695 560.912 38.9916H560.899Z" fill="#AFFCFF"/>
</g>
</g>
<defs>
<filter id="filter0_d_109_689" x="-46" y="-20" width="1172" height="1121" filterUnits="userSpaceOnUse" color-interpolation-filters="sRGB">
<feFlood flood-opacity="0" result="BackgroundImageFix"/>
<feColorMatrix in="SourceAlpha" type="matrix" values="0 0 0 0 0 0 0 0 0 0 0 0 0 0 0 0 0 0 127 0" result="hardAlpha"/>
<feOffset/>
<feGaussianBlur stdDeviation="23"/>
<feColorMatrix type="matrix" values="0 0 0 0 0.745098 0 0 0 0 0.976471 0 0 0 0 1 0 0 0 0.6 0"/>
<feBlend mode="normal" in2="BackgroundImageFix" result="effect1_dropShadow_109_689"/>
<feBlend mode="normal" in="SourceGraphic" in2="effect1_dropShadow_109_689" result="shape"/>
</filter>
<clipPath id="clip0_109_689">
<rect width="1080" height="1080" fill="white"/>
</clipPath>
</defs>
</svg>
