<svg width="136" height="130" viewBox="0 0 136 130" fill="none" xmlns="http://www.w3.org/2000/svg">
<g filter="url(#filter0_d_49_3976)">
<path d="M90 82.0592C90 82.5374 89.8066 82.9702 89.4931 83.2837C89.1797 83.5971 88.7469 83.7905 88.2687 83.7905H74.7817C73.839 83.7905 73.0599 83.0383 73.0456 82.0956C73.0378 81.6031 73.1859 81.1595 73.5071 80.8377C73.6444 80.7004 73.7895 80.5954 73.9399 80.5177C74.3011 80.3321 74.5369 79.9703 74.5369 79.5649L74.5381 75.7906C74.5381 75.1972 74.0569 74.716 73.4635 74.716H50.3313C49.8823 74.716 49.4901 74.9996 49.3265 75.4181C49.0638 76.0897 48.4483 76.6265 47.7313 76.6265C47.2531 76.6265 46.8203 76.433 46.5069 76.1196C46.1934 75.8062 46 75.3733 46 74.8951V61.4374C46 60.4894 46.7475 59.6912 47.6955 59.6721C48.188 59.6619 48.6346 59.8571 48.9558 60.1783C49.1229 60.3455 49.265 60.598 49.3606 60.8696C49.511 61.2977 49.9182 61.5819 50.3719 61.5819H59.0147C59.6082 61.5819 60.0894 61.1007 60.0894 60.5073V52.388C60.0894 51.7945 60.5705 51.3134 61.164 51.3134H64.0595C64.5705 51.3134 64.9848 50.899 64.9848 50.388C64.9848 49.877 64.5705 49.4626 64.0595 49.4626H59.527C58.5789 49.4626 57.7807 48.7152 57.7616 47.7671C57.7515 47.2746 57.9467 46.828 58.2679 46.5069C58.5891 46.1857 59.0142 46 59.4924 46H74.4426C75.3906 46 76.1888 46.7475 76.2079 47.6955C76.2181 48.188 76.0229 48.6346 75.7017 48.9558C75.3805 49.277 74.9554 49.4626 74.4772 49.4626H69.9101C69.3991 49.4626 68.9848 49.877 68.9848 50.388C68.9848 50.899 69.3991 51.3134 69.9101 51.3134H72.8056C73.399 51.3134 73.8802 51.7945 73.8802 52.388V60.5073C73.8802 61.1007 74.3614 61.5819 74.9548 61.5819H81.695C85.4574 61.5819 88.5069 64.6314 88.5069 68.3937V79.4855C88.5069 79.9088 88.7612 80.2825 89.1433 80.464C89.6973 80.7267 89.9994 81.3422 89.9994 82.0592H90Z" fill="#AFFCFF"/>
</g>
<defs>
<filter id="filter0_d_49_3976" x="0" y="0" width="136" height="129.791" filterUnits="userSpaceOnUse" color-interpolation-filters="sRGB">
<feFlood flood-opacity="0" result="BackgroundImageFix"/>
<feColorMatrix in="SourceAlpha" type="matrix" values="0 0 0 0 0 0 0 0 0 0 0 0 0 0 0 0 0 0 127 0" result="hardAlpha"/>
<feOffset/>
<feGaussianBlur stdDeviation="23"/>
<feColorMatrix type="matrix" values="0 0 0 0 0.745098 0 0 0 0 0.976471 0 0 0 0 1 0 0 0 0.6 0"/>
<feBlend mode="normal" in2="BackgroundImageFix" result="effect1_dropShadow_49_3976"/>
<feBlend mode="normal" in="SourceGraphic" in2="effect1_dropShadow_49_3976" result="shape"/>
</filter>
</defs>
</svg>
