<?xml version="1.0" encoding="UTF-8"?>
<svg id="Calque_4" data-name="Calque 4" xmlns="http://www.w3.org/2000/svg" xmlns:xlink="http://www.w3.org/1999/xlink" viewBox="0 0 906.72 979.44">
  <defs>
    <style>
      .cls-1 {
        filter: url(#outer-glow-2);
      }

      .cls-1, .cls-2, .cls-3 {
        fill: #bef9ff;
        stroke-width: 0px;
      }

      .cls-2 {
        filter: url(#outer-glow-3);
      }

      .cls-3 {
        filter: url(#outer-glow-1);
      }
    </style>
    <filter id="outer-glow-1" filterUnits="userSpaceOnUse">
      <feOffset dx="0" dy="0"/>
      <feGaussianBlur result="blur" stdDeviation="23"/>
      <feFlood flood-color="#bef9ff" flood-opacity=".6"/>
      <feComposite in2="blur" operator="in"/>
      <feComposite in="SourceGraphic"/>
    </filter>
    <filter id="outer-glow-2" filterUnits="userSpaceOnUse">
      <feOffset dx="0" dy="0"/>
      <feGaussianBlur result="blur-2" stdDeviation="23"/>
      <feFlood flood-color="#bef9ff" flood-opacity=".6"/>
      <feComposite in2="blur-2" operator="in"/>
      <feComposite in="SourceGraphic"/>
    </filter>
    <filter id="outer-glow-3" filterUnits="userSpaceOnUse">
      <feOffset dx="0" dy="0"/>
      <feGaussianBlur result="blur-3" stdDeviation="23"/>
      <feFlood flood-color="#bef9ff" flood-opacity=".6"/>
      <feComposite in2="blur-3" operator="in"/>
      <feComposite in="SourceGraphic"/>
    </filter>
  </defs>
  <path class="cls-3" d="M837.38,318.66c-2.54-42.77-28.07-77.32-66.63-90.17-79.31-26.44-107.37-135.43-107.63-136.47-3.94-16.09-20.18-25.94-36.28-22-16.09,3.95-25.94,20.19-22,36.28,1.42,5.79,35.99,142.13,146.94,179.11,15.25,5.08,24.62,18.5,25.7,36.81,1.15,19.27-7.19,41.57-23.47,62.78-18.27,23.81-46.31,46.08-81.74,65.08-10.24-8.47-21.65-15.21-33.85-20.05,16.8-30.48,25.56-64.5,25.56-99.94,0-31.08-7.08-62.29-20.48-90.26-14.06-29.34-34.32-54.4-60.2-74.46-43.96-34.08-98.56-49-153.75-42.01-55.18,6.99-104.34,35.05-138.42,79.01l-178.41,230.16c-28.57,36.86-43.67,80.94-43.67,127.46,0,31.09,7.08,62.3,20.48,90.26,9.43,19.66,21.63,37.4,36.45,52.99-13,17.59-21.35,36.45-24.49,55.64-4.48,27.26,1.71,54.88,17.42,77.77,18.55,27.05,48.46,45.84,84.2,52.91,37.32,7.39,77.52,1.39,116.24-17.35,55.41-26.81,117.32-29.82,184-8.95,51.62,16.15,86.79,41.23,87.09,41.45,5.32,3.87,11.49,5.73,17.61,5.73,9.27,0,18.42-4.29,24.29-12.36,9.74-13.4,6.78-32.17-6.63-41.91-1.68-1.23-42.03-30.27-102.38-49.52-35.33-11.27-70.51-16.99-104.6-16.99-.42,0-.84,0-1.26.01-43.69.18-85.49,9.78-124.25,28.53-33.98,16.44-61.43,15.88-78.46,12.5-19.98-3.95-36.88-14.15-46.37-27.99-12.73-18.56-10.88-40.54,4.67-62.3,32.25,18.69,68.31,28.03,104.35,28.03s71.44-9.18,103.42-27.53c20.55,19.81,46.98,32.04,75.82,34.84,4.18.41,8.35.61,12.5.61,29.38,0,57.61-10.08,80.58-29l122.54-100.87c29.46-24.24,46.35-60.05,46.35-98.23,0-17.12-3.49-34-10.12-49.59,39.56-22.21,70.8-48.08,93.11-77.14,25.43-33.13,37.8-68.7,35.77-102.87ZM341.76,649.25c0,.87.01,1.75.03,2.62v.04c.01.78.04,1.56.07,2.34.02.68.06,1.36.1,2.04.03.64.07,1.28.12,1.92.04.61.08,1.2.14,1.8.04.52.08,1.03.14,1.54.03.38.07.76.11,1.13.13,1.26.28,2.5.46,3.75.02.23.05.46.09.68.09.65.18,1.29.29,1.94.02.14.04.27.06.4.1.62.2,1.24.32,1.86.01.11.03.22.05.32.11.64.23,1.28.36,1.91.11.57.22,1.14.34,1.7.12.6.25,1.19.39,1.78.57,2.6,1.24,5.19,1.99,7.74.12.45.26.89.4,1.34.16.58.34,1.15.53,1.72.22.68.44,1.36.67,2.04.04.12.08.24.12.36-50.99,27.99-114.65,23.72-161.92-12.83-.09-.08-.18-.15-.28-.22-36.41-28.3-57.29-70.99-57.29-117.18,0-33.09,10.75-64.46,31.09-90.7l178.41-230.16c24.26-31.29,59.26-51.27,98.54-56.25,6.34-.8,12.65-1.2,18.93-1.2,32.69,0,64.27,10.76,90.52,31.11,36.51,28.3,57.44,71.05,57.44,117.3,0,33.09-10.75,64.45-31.09,90.69l-1.51,1.95c-.21.03-.43.07-.64.11-.93.15-1.87.31-2.8.48-1.66.31-3.31.65-4.95,1.03-.83.19-1.66.38-2.49.59-.82.21-1.64.42-2.46.64-.82.22-1.64.45-2.46.69-.81.24-1.62.49-2.43.74-.06.02-.12.04-.17.05-.76.24-1.51.49-2.25.74-.66.22-1.32.45-1.98.68-.57.2-1.14.41-1.71.63-.45.17-.9.34-1.36.51-.7.27-1.41.55-2.1.84-.73.29-1.45.59-2.16.9-.15.07-.31.13-.46.2-.68.29-1.35.59-2.03.9-.04.02-.08.04-.13.06-.73.33-1.45.67-2.17,1.02-.02.01-.04.02-.06.03-.76.36-1.51.73-2.26,1.11-.76.38-1.51.77-2.26,1.17-.76.4-1.51.81-2.25,1.22-.74.42-1.48.84-2.22,1.27-.65.38-1.3.77-1.95,1.16-1.63.99-3.23,2.01-4.81,3.07-1.29.87-2.56,1.76-3.82,2.67-.54.39-1.08.79-1.61,1.19-.37.27-.73.55-1.1.83-1.23.94-2.44,1.9-3.64,2.89l-122.55,100.87c-29.45,24.25-46.34,60.05-46.34,98.23ZM634.14,600.17l-122.55,100.87c-13.84,11.4-31.3,16.73-49.15,14.99-17.86-1.73-33.97-10.31-45.36-24.15-1.81-2.2-3.5-4.53-5.03-6.96h0c-6.73-10.66-10.29-23-10.29-35.67,0-20.18,8.92-39.1,24.48-51.91l122.54-100.87c11.35-9.35,25.09-14.62,39.73-15.25.98-.04,1.97-.06,2.95-.06,20.03,0,38.67,8.68,51.55,24.12.21.27.43.54.65.8,9.8,12.08,14.96,26.66,14.96,42.18,0,20.18-8.92,39.1-24.48,51.91Z"/>
  <path class="cls-1" d="M453.32,218.07c-63.39,0-114.95,51.56-114.95,114.95s51.56,114.95,114.95,114.95,114.95-51.56,114.95-114.95-51.56-114.95-114.95-114.95ZM453.32,387.97c-30.3,0-54.95-24.65-54.95-54.95s24.65-54.95,54.95-54.95,54.95,24.65,54.95,54.95-24.65,54.95-54.95,54.95Z"/>
  <circle class="cls-2" cx="468.23" cy="647.36" r="48.38"/>
</svg>